<!DOCTYPE svg PUBLIC "-//W3C//DTD SVG 1.1//EN" "http://www.w3.org/Graphics/SVG/1.1/DTD/svg11.dtd">
<!-- Uploaded to: SVG Repo, www.svgrepo.com, Transformed by: SVG Repo Mixer Tools -->
<svg fill="#000000" width="800px" height="800px" viewBox="0 0 24 24" id="map-pin" data-name="Flat Line" xmlns="http://www.w3.org/2000/svg" class="icon flat-line">
<g id="SVGRepo_bgCarrier" stroke-width="0"/>
<g id="SVGRepo_tracerCarrier" stroke-linecap="round" stroke-linejoin="round"/>
<g id="SVGRepo_iconCarrier">
<path id="secondary" d="M9,6a3,3,0,0,0,3,3h0a3,3,0,0,0,3-3h0a3,3,0,0,0-3-3h0A3,3,0,0,0,9,6Z" style="fill: #ffffff; stroke-width: 2;"/>
<path id="primary" d="M15.93,18a1.47,1.47,0,0,1,.07.46c0,1.4-1.79,2.54-4,2.54s-4-1.14-4-2.54A1.47,1.47,0,0,1,8.07,18" style="fill: none; stroke: #32c0c3; stroke-linecap: round; stroke-linejoin: round; stroke-width: 2;"/>
<path id="primary-2" data-name="primary" d="M9,6a3,3,0,0,0,3,3h0a3,3,0,0,0,3-3h0a3,3,0,0,0-3-3h0A3,3,0,0,0,9,6Zm3,3v8" style="fill: none; stroke: #32c0c3; stroke-linecap: round; stroke-linejoin: round; stroke-width: 2;"/>
</g>
</svg>